<svg width="500" height="64" viewBox="0 0 500 64" fill="none" xmlns="http://www.w3.org/2000/svg">
<foreignObject x="-4" y="-4" width="508" height="72"><div xmlns="http://www.w3.org/1999/xhtml" style="backdrop-filter:blur(2px);clip-path:url(#bgblur_0_916_455_clip_path);height:100%;width:100%"></div></foreignObject><g data-figma-bg-blur-radius="4">
<rect width="500" height="64" rx="12" fill="#D9E5FF"/>
<path d="M206.028 30.24V39.768H203.148V32.976H200.46V30.24H206.028ZM200.748 23.712L203.052 22.2C204.156 23.328 205.788 24.96 206.58 25.992L204.108 27.72C203.388 26.688 201.852 24.96 200.748 23.712ZM210.3 27.384H219.108V29.928H210.3V27.384ZM208.548 23.208H211.404V28.584C211.404 31.944 210.996 36.744 208.548 39.768C208.044 39.264 206.772 38.448 206.076 38.16C208.332 35.424 208.548 31.44 208.548 28.536V23.208ZM218.748 27.384H219.276L219.78 27.288L221.556 27.864C220.188 34.32 216.684 38.136 211.74 40.104C211.428 39.408 210.708 38.328 210.132 37.752C214.452 36.312 217.692 32.76 218.748 27.84V27.384ZM220.116 21.816L222.516 24.096C218.772 25.152 213.684 25.632 209.34 25.728C209.244 25.032 208.86 23.856 208.548 23.208C212.7 23.04 217.356 22.584 220.116 21.816ZM211.236 32.352L213.228 30.696C215.844 32.904 219.804 36.096 221.748 38.064L219.54 40.08C217.764 38.04 213.948 34.728 211.236 32.352ZM204.396 38.568C205.284 38.568 205.98 39.288 207.468 40.008C209.148 40.848 211.452 40.992 214.14 40.992C216.684 40.992 220.476 40.776 222.876 40.416C222.54 41.208 222.06 42.648 222.012 43.488C220.428 43.608 216.516 43.752 214.044 43.752C210.996 43.752 208.86 43.44 206.988 42.552C205.764 41.952 204.9 41.208 204.324 41.208C203.652 41.208 202.692 42.84 201.924 44.136L199.932 41.328C201.54 39.6 203.244 38.568 204.396 38.568ZM234.636 30.72V34.872H238.884V30.72H234.636ZM231.924 28.2H241.764V37.368H231.924V28.2ZM226.644 22.44H247.236V44.16H244.116V25.368H229.62V44.16H226.644V22.44ZM228.324 40.176H245.892V42.864H228.324V40.176ZM256.212 32.952H268.5V35.16H256.212V32.952ZM256.212 36.72H268.5V38.904H256.212V36.72ZM256.212 40.536H268.524V43.032H256.212V40.536ZM251.532 24.84H273.3V27.504H251.532V24.84ZM253.884 28.992H270.732V44.16H267.732V31.488H256.764V44.16H253.884V28.992ZM260.892 26.424L264.54 26.52C263.988 28.056 263.22 29.496 262.668 30.528L259.86 30.192C260.292 29.088 260.7 27.552 260.892 26.424ZM266.508 21.552L269.82 22.272C268.884 23.664 267.828 24.984 267.012 25.872L264.444 25.152C265.188 24.144 266.028 22.656 266.508 21.552ZM255.276 22.584L257.844 21.456C258.756 22.296 259.716 23.472 260.22 24.288L257.532 25.68C257.124 24.84 256.14 23.52 255.276 22.584ZM277.404 22.752H298.428V25.416H277.404V22.752ZM285.996 24.072L289.308 24.504C288.684 26.064 287.892 27.6 287.316 28.656L284.82 28.152C285.276 26.976 285.78 25.296 285.996 24.072ZM286.38 31.224H289.38V35.592C289.38 39.048 287.484 42.312 278.556 44.184C278.22 43.584 277.404 42.456 276.756 41.88C285.036 40.344 286.38 37.872 286.38 35.52V31.224ZM288.66 39.744L290.292 37.776C292.956 38.832 296.796 40.656 298.692 41.928L296.916 44.208C295.164 42.888 291.42 40.944 288.66 39.744ZM279.372 27.6H296.628V38.688H293.532V30.24H282.324V38.76H279.372V27.6Z" fill="#2366F9"/>
</g>
<defs>
<clipPath id="bgblur_0_916_455_clip_path" transform="translate(4 4)"><rect width="500" height="64" rx="12"/>
</clipPath></defs>
</svg>
